<?xml version="1.0" encoding="UTF-8"?>
<svg version="1.1" width="480" height="192" viewBox="0 0 1024 410" xmlns="http://www.w3.org/2000/svg" xml:lang="en">
<title>Globe eye icon</title>
<desc>Stylised icon of an eye with a globe as its iris.</desc>
<style type="text/css">
	svg{
		color-scheme: light dark;
		color: light-dark(#000, #fff);
	}
	path{
		fill: currentColor;
	}
	#globe{
		clip-path: url(#clip);
	}
	#brow{
		stroke: currentColor;
		stroke-linejoin: round;
		stroke-width: 4.112;
	}
</style>
<clipPath id="clip">
	<path d="m945.44 317.2c26.124-32.333 36.122-62.73 31.768-95.385-5.4022-40.557-31.446-72.164-83.21-101.03-47.572-26.447-103.69-43.218-177.87-53.135-106.92-33.496-211.53-7.9137-245.22-2.4993-11.7 1.8807-23.431 3.2333-35.054 4.7569-94.365 12.37-173.19 32.494-252.13 63.778-73.696 29.107-126.75 59.908-168.11 97.643 77.269 235.15 883.35 191.96 929.82 85.871z"/>
</clipPath>
<path id="globe" d="m606 22.25c-99.411 0-180 80.589-180 180 0 99.411 80.589 180 180 180 12.165 0 24.048-1.2103 35.537-3.5109-4.6308-2.2148-5.1361-18.832-0.55688-28.305 5.0977-10.547 21.094-37.266 5.2734-46.23-15.82-8.9648-11.426-13.008-21.094-23.379s-5.7141-11.93-6.3281-14.59c-2.1094-9.1406 9.3164-22.852 9.8438-24.258 0.52735-1.4062 0.52735-6.6797 0.35157-8.2617-0.17579-1.582-7.2066-5.8008-8.9644-5.9766s-2.6367 2.8125-5.0977 2.9883c-2.4609 0.17579-13.184-6.5039-15.469-8.2617-2.2852-1.7578-3.3398-5.9766-6.5039-9.1406-3.1641-3.1641-3.5156-0.70313-8.4375-2.6367-4.9219-1.9336-20.742-7.7344-32.871-12.656-12.129-4.9219-13.184-11.821-13.359-16.699s-7.3828-11.953-10.763-17.051c-3.3792-5.0977-4.0027-12.129-5.2331-10.547-1.2305 1.582 6.3281 20.039 5.0976 20.566s-3.8672-5.0977-7.3828-9.668c-3.5156-4.5703 3.6914-2.1094-7.5586-24.258s3.5156-33.442 4.2188-45c0.70312-11.558 9.4922 4.2187 4.9219-3.1641-4.5703-7.3828 0.35156-22.852-3.1641-28.477-3.5156-5.625-23.555 6.3281-23.555 6.3281 0.52734-5.4492 17.578-14.766 29.883-23.379 12.305-8.6133 19.819-1.9336 29.707 1.2305 9.8878 3.1641 10.547 2.1094 7.207-1.0547-3.3398-3.1641 1.4062-4.7461 9.1406-3.5156 7.7344 1.2305 9.8438 10.547 21.621 9.668 11.777-0.87891 1.2305 2.2852 2.8125 5.2734 1.582 2.9883-1.7578 2.6367-9.4922 7.9102-7.7344 5.2734 0.17578 5.2734 13.887 15.293 13.711 10.02 9.4922-6.6797 8.0859-14.062-1.4062-7.3828 10.02-1.582 10.02-1.582 8.4375 5.625 6.8784 0.30938 13.031 2.243 6.1523 1.9336 22.829 16.038 22.829 16.038-20.918 11.426-7.7344 12.656-4.2188 15.293 3.5156 2.6367-7.207 7.7344-7.207 7.7344-4.3945-4.3945-5.0977 0.17578-7.9102 1.7578-2.8125 1.582-0.17578 5.625-0.17578 5.625-14.546 2.2852-11.25 17.578-11.074 21.27 0.17578 3.6914-9.3164 9.3164-11.777 14.59s6.3281 16.699 1.7578 17.402c-4.5703 0.70313-9.1406-17.227-33.75-10.547-7.4194 2.0142-23.906 10.547-15.117 27.949 8.7891 17.402 23.379-4.9219 28.301-2.4609 4.9219 2.4609-1.4062 13.535-0.35156 13.711s13.887 0.48328 14.59 15.469c0.70312 14.985 19.512 13.711 23.555 14.062s17.578-11.074 19.512-11.602c1.9336-0.52734 9.668-7.0312 26.543 2.6367 16.875 9.668 25.488 8.2617 31.289 12.305 5.8008 4.043 1.7578 12.129 7.207 14.766 5.4492 2.6367 27.246-0.87891 32.695 8.0859 5.4492 8.9648-22.5 53.965-31.289 58.887-8.7891 4.9219-12.832 16.172-21.621 23.379s-21.094 16.128-32.695 23.027c-10.269 6.1064-12.117 17.046-16.692 20.499 80.557-17.895 140.79-89.769 140.79-175.71 0-99.411-80.589-180-180-180zm42.188 168.93c-2.4609 0.70312-7.5586 5.2734-20.039-2.1094-12.48-7.3828-21.094-5.9766-22.148-7.207 0 0-1.0547-2.9883 4.3945-3.5156 11.19-1.0833 25.312 10.371 28.477 10.547 3.1641 0.17578 4.7461-3.1641 10.371-1.3514 5.625 1.8108 1.4062 2.9334-1.0547 3.6366zm-58.887-151c-1.2258-0.89156 1.0153-1.9181 2.3512-3.6914 0.77109-1.0247 0.19922-2.7258 1.1644-3.6914 2.6367-2.6367 15.645-6.3281 13.101 0.87891-2.5425 7.207-14.683 7.9102-16.617 6.5039zm31.465 22.852c-4.3945-0.17578-14.739-1.2689-12.832-3.1641 7.4269-7.3828-2.8125-9.4922-9.1406-10.02-6.3281-0.52734-8.9648-4.043-5.8008-4.3945 3.1641-0.35156 15.82 0.17578 17.93 1.9336 2.1094 1.7578 13.535 6.3281 14.238 9.668 0.70312 3.3398 0 6.1523-4.3945 5.9766zm38.145-1.2305c-3.5156 2.8125-21.206-10.092-24.609-13.008-14.766-12.656-22.676-8.4375-25.777-10.547-3.1017-2.1094-1.9969-4.9219 2.7492-9.1406 4.7461-4.2188 18.105 1.4062 25.84 2.2852 7.7344 0.87891 16.699 6.8555 16.875 13.96 0.17578 7.1039 8.4375 13.638 4.9219 16.45z"/>
<path id="brow" d="m977.21 221.81c-5.4022-40.557-31.446-72.164-83.21-101.03-47.572-26.447-103.69-43.218-177.87-53.135-106.92-33.496-211.53-7.9137-245.22-2.4993-11.7 1.8807-23.431 3.2333-35.054 4.7569-94.365 12.37-173.19 32.494-252.13 63.778-73.696 29.107-126.75 59.908-168.11 97.643 6.4504-7.9017 13.868-15.965 22.093-24.028 42.492-41.524 97.804-74.502 176.74-105.79 78.937-31.284 157.79-51.2 252.05-63.698 94.176-12.578 175.61-14.11 260.03-4.7572 84.339 9.4337 146.26 26.769 198.11 55.635 51.764 28.866 77.888 60.392 83.21 100.95 5.4828 40.637-11.369 78.05-53.861 119.41-2.7414 2.7414-5.6441 5.4828-8.5468 8.1436 26.124-32.333 36.122-62.73 31.768-95.385z"/>
</svg>
